<mxfile host="app.diagrams.net" modified="2024-02-15T13:58:13.553Z" agent="Mozilla/5.0 (X11; Linux x86_64) AppleWebKit/537.36 (KHTML, like Gecko) Chrome/121.0.0.0 Safari/537.36" etag="ftiVG1Tg8OqF_tHjxY_H" version="23.1.4" type="github">
  <diagram name="Page-1" id="uOqIbfHZlr_ntTDndwdY">
    <mxGraphModel dx="1450" dy="799" grid="1" gridSize="10" guides="1" tooltips="1" connect="1" arrows="1" fold="1" page="1" pageScale="1" pageWidth="850" pageHeight="1100" math="0" shadow="0">
      <root>
        <mxCell id="0" />
        <mxCell id="1" parent="0" />
        <mxCell id="NV8SNw23Hj2y41TBkfal-1" value="книги&lt;br&gt;" style="rounded=0;whiteSpace=wrap;html=1;" vertex="1" parent="1">
          <mxGeometry x="30" y="50" width="120" height="60" as="geometry" />
        </mxCell>
        <mxCell id="NV8SNw23Hj2y41TBkfal-2" value="курсы" style="rounded=0;whiteSpace=wrap;html=1;" vertex="1" parent="1">
          <mxGeometry x="30" y="140" width="120" height="60" as="geometry" />
        </mxCell>
        <mxCell id="NV8SNw23Hj2y41TBkfal-3" value="технологии" style="rounded=0;whiteSpace=wrap;html=1;" vertex="1" parent="1">
          <mxGeometry x="30" y="230" width="120" height="60" as="geometry" />
        </mxCell>
        <mxCell id="NV8SNw23Hj2y41TBkfal-4" value="чтение кода" style="rounded=0;whiteSpace=wrap;html=1;" vertex="1" parent="1">
          <mxGeometry x="30" y="330" width="120" height="60" as="geometry" />
        </mxCell>
        <mxCell id="NV8SNw23Hj2y41TBkfal-5" value="паттерны" style="rounded=0;whiteSpace=wrap;html=1;" vertex="1" parent="1">
          <mxGeometry x="30" y="430" width="120" height="60" as="geometry" />
        </mxCell>
        <mxCell id="NV8SNw23Hj2y41TBkfal-6" value="системный дизайн" style="rounded=0;whiteSpace=wrap;html=1;" vertex="1" parent="1">
          <mxGeometry x="29" y="520" width="120" height="60" as="geometry" />
        </mxCell>
        <mxCell id="NV8SNw23Hj2y41TBkfal-7" value="Разобраться с хешированием и другими алгоритмами&lt;br&gt;&lt;br&gt;https://en.wikipedia.org/wiki/Hash_table" style="rounded=0;whiteSpace=wrap;html=1;" vertex="1" parent="1">
          <mxGeometry x="10" y="700" width="310" height="100" as="geometry" />
        </mxCell>
      </root>
    </mxGraphModel>
  </diagram>
</mxfile>
